<?xml version="1.0" encoding="UTF-8"?> <svg xmlns="http://www.w3.org/2000/svg" width="150" height="150" viewBox="0 0 150 150" fill="none"> <rect x="50" y="15" width="50" height="50" rx="10" fill="white" fill-opacity="0.9"></rect> <g opacity="0.7" filter="url(#filter0_bd)"> <rect x="50" y="15" width="50" height="50" rx="10" fill="white" fill-opacity="0.25"></rect> </g> <rect x="51" y="16" width="48" height="48" rx="9" stroke="white" stroke-width="2"></rect> <path d="M61 47.8929V29.6429C61 29.6429 63.4706 28 68 28C72.5294 28 75 29.6429 75 29.6429M61 47.8929C61 47.8929 63.4706 46.25 68 46.25C72.5294 46.25 75 47.8929 75 47.8929M61 47.8929L62.6471 47.4821V52L72.5294 49.7411M75 29.6429V47.8929M75 29.6429C75 29.6429 77.4706 28 82 28C86.5294 28 89 29.6429 89 29.6429V47.8929M89 47.8929C89 47.8929 86.5294 46.25 82 46.25C77.4706 46.25 75 47.8929 75 47.8929M89 47.8929L87.3529 47.4821V52L77.4706 49.7411M75 47.8929L72.5294 47.0714V49.7411M75 47.8929L77.4706 47.0714V49.7411M72.5294 49.7411V49.7411C72.5294 50.9886 73.5408 52 74.7883 52H75.2117C76.4592 52 77.4706 50.9886 77.4706 49.7411V49.7411" stroke="black" stroke-width="1.8" stroke-linecap="round" stroke-linejoin="round"></path> <defs> <filter id="filter0_bd" x="0" y="0" width="150" height="150" filterUnits="userSpaceOnUse" color-interpolation-filters="sRGB"> <feFlood flood-opacity="0" result="BackgroundImageFix"></feFlood> <feGaussianBlur in="BackgroundImage" stdDeviation="5"></feGaussianBlur> <feComposite in2="SourceAlpha" operator="in" result="effect1_backgroundBlur"></feComposite> <feColorMatrix in="SourceAlpha" type="matrix" values="0 0 0 0 0 0 0 0 0 0 0 0 0 0 0 0 0 0 127 0"></feColorMatrix> <feOffset dy="35"></feOffset> <feGaussianBlur stdDeviation="25"></feGaussianBlur> <feColorMatrix type="matrix" values="0 0 0 0 0.886275 0 0 0 0 0.498039 0 0 0 0 0.74902 0 0 0 0.2 0"></feColorMatrix> <feBlend mode="normal" in2="effect1_backgroundBlur" result="effect2_dropShadow"></feBlend> <feBlend mode="normal" in="SourceGraphic" in2="effect2_dropShadow" result="shape"></feBlend> </filter> </defs> </svg> 