<?xml version="1.0" encoding="UTF-8"?> <svg xmlns="http://www.w3.org/2000/svg" width="356" height="78" viewBox="0 0 356 78" fill="none"> <path d="M0.499629 6.99937C116 176.499 255.5 -18.5004 333.5 17.9993" stroke="black"></path> <path d="M332.526 25.9483C328.982 26.0695 327.044 21.8609 329.441 19.2473L331.228 17.2983C331.456 17.0497 331.651 16.7732 331.81 16.4754L333.053 14.1415C334.72 11.0117 339.334 11.4381 340.399 14.8204L341.193 17.3426C341.295 17.6644 341.436 17.972 341.615 18.2582L343.014 20.5018C344.891 23.5104 342.215 27.2926 338.754 26.5239L336.172 25.9507C335.843 25.8776 335.506 25.8464 335.168 25.8579L332.526 25.9483Z" fill="black"></path> </svg> 