<?xml version="1.0" encoding="UTF-8"?> <svg xmlns="http://www.w3.org/2000/svg" width="125" height="125" viewBox="0 0 125 125" fill="none"> <path d="M28.7975 43.0012C40.1596 43.0012 48.8517 50.7968 48.8517 62.3733C48.8517 74.0082 40.1011 81.9793 28.7975 81.9793H16.0517C13.4986 81.9793 11.3743 80.2447 11.3743 77.3019V47.854C11.3743 44.8917 13.4986 43.0012 16.0517 43.0012H28.7975Z" fill="#FF6900"></path> <path d="M14.2782 71.5722C13.3232 71.5137 12.3878 71.5137 11.3743 71.5722V72.8584C13.0504 72.5271 14.1028 72.2933 14.1028 72.2933L14.2782 71.5722ZM41.2705 53.2525C40.1596 52.2585 38.7174 51.7518 37.4311 51.7518C35.5992 51.7518 34.0985 52.2585 31.8573 52.2585C30.2982 52.356 28.9144 48.9649 27.0825 48.5751C26.3029 46.8016 24.4709 46.5678 23.3601 47.4642C22.3661 46.8601 20.7485 47.1914 20.6901 48.3023C19.5207 47.971 18.0201 48.5751 18.6827 50.0758C15.7788 50.2317 15.2721 52.7458 17.221 53.0771C14.707 54.4608 15.8373 56.858 17.9421 56.3707C18.3319 59.9957 20.008 64.7705 17.2795 65.9398C16.9482 66.0568 15.7788 66.3296 13.4402 65.8229C12.7191 65.6475 12.0564 65.4916 11.3743 65.2577V67.1482C13.3817 67.6549 15.3891 67.9862 16.6559 67.8692C20.1639 67.4795 20.3393 64.5756 20.1639 62.0225C19.9885 59.5669 19.1115 56.5656 19.4428 54.5583L19.3258 54.4413C18.0591 55.864 17.1626 55.4742 17.1041 55.026C16.9287 54.1295 18.4488 53.0771 19.3258 52.6873C19.3258 52.6288 19.3843 52.5704 19.3843 52.5119C18.5463 52.6288 17.6108 52.5119 17.5523 51.9467C17.4939 51.2841 18.8971 50.602 20.7291 50.7774C20.7875 50.7189 20.7875 50.7189 20.846 50.6604C20.7291 50.602 20.6316 50.5435 20.4562 50.485C20.008 50.2707 19.8521 49.8224 20.008 49.5301C20.1834 49.1988 20.6706 49.0818 21.1188 49.0818C21.7815 49.0818 22.3466 49.2572 22.7364 49.4132C22.7949 49.4132 22.8534 49.3547 22.8534 49.3547C22.678 49.2377 22.5805 49.1403 22.522 48.9649C22.4051 48.7895 22.3466 48.5167 22.5805 48.3607C22.8534 48.1464 23.477 48.0879 24.0812 48.6336C24.1981 48.7505 24.2955 48.848 24.4125 48.9649C24.4709 48.9649 24.5294 48.9649 24.6269 48.9064C24.5099 48.731 24.4515 48.6336 24.4125 48.4582C24.354 48.2438 24.4709 48.0684 24.6853 47.9515C24.9582 47.893 25.2505 48.0099 25.4064 48.2243C25.5818 48.4972 25.6793 48.8285 25.7377 49.0623C24.4515 49.2377 22.9508 49.6665 22.0153 50.9528C21.1188 52.2391 20.7291 54.188 21.2942 55.9809C21.6256 57.8714 22.4051 59.6644 23.0677 61.4379C23.0677 61.4379 23.0677 61.4379 23.0677 61.4963C24.5099 65.7255 27.2969 76.0351 13.713 81.5505C14.4926 81.8234 15.2721 81.9988 16.0517 81.9988H17.4354C20.2223 80.4981 22.1128 78.8221 23.4575 76.9901C29.6355 79.7186 35.3263 78.3349 37.7625 73.8134C39.38 72.8584 40.4325 70.8706 40.5494 69.4089C41.5433 68.1226 41.7187 66.505 41.4459 65.4526C41.3874 65.1798 41.173 65.1798 40.7833 65.3941C35.7161 68.3955 31.2531 68.9022 25.9716 67.4015C25.7962 65.2772 25.4064 63.5427 25.231 62.4903C25.0751 60.366 25.7962 59.3136 29.694 60.5998C32.2081 61.2625 33.3774 62.4318 34.3129 63.0555C34.7611 63.3868 35.2679 63.7181 35.5992 63.5037C35.8136 63.3868 35.8136 62.997 35.8136 62.5487C35.7551 61.3794 35.2484 59.4305 34.7027 58.7094C36.2618 58.5925 37.4896 58.6509 38.1522 58.7094C39.5944 58.9823 39.7114 59.7034 39.9257 60.0542C40.374 61.282 42.7127 61.0091 42.927 59.8788C43.2194 58.0273 43.3948 55.2014 41.2705 53.2525ZM25.9716 69.5063C27.7451 70.013 30.2592 70.2859 32.325 70.1105C35.95 69.8376 38.6784 68.4929 40.1791 67.5574C39.2826 69.8961 35.833 71.2798 32.5004 71.7281C32.5004 71.9035 32.442 72.0594 32.442 72.2348C34.956 72.1179 37.3337 71.2798 38.4056 70.5587C37.8014 72.8389 34.7222 73.7354 31.9547 73.8914C31.8963 74.0668 31.7793 74.2227 31.7403 74.3981C33.3579 74.4565 34.9171 74.1252 35.8136 73.8329C34.5857 76.23 29.0119 77.8476 24.393 75.6649C25.4649 73.5211 25.9131 71.4552 25.9716 69.5063ZM41.8357 58.4755C41.7772 58.9823 41.2315 58.9238 40.9976 58.534C40.2181 57.1893 39.1657 56.9749 37.5481 56.858C36.3203 56.7995 34.8781 56.9164 33.5333 56.9749C33.319 56.9749 33.202 56.7995 33.2605 56.702C33.5333 55.5912 34.4883 53.4084 35.4822 53.2525C35.989 53.194 37.0414 53.0381 37.6455 53.0381C40.4325 53.0186 41.9526 56.1953 41.8357 58.4755Z" fill="black"></path> <path d="M26.186 50.7969C26.6342 50.6215 27.2384 51.0698 27.5697 51.7519C27.901 52.4145 27.8426 53.0966 27.3943 53.2525C26.9461 53.4279 26.3419 52.9797 26.0106 52.2976C25.9521 52.1806 25.9521 52.1222 25.8937 52.0247H25.9521C26.1275 52.1417 26.2834 52.2001 26.4004 52.1417C26.5758 52.0247 26.5173 51.7519 26.4004 51.5375C26.2834 51.3621 26.0691 51.1477 25.8937 51.1477L25.8352 51.0892C25.9716 50.9723 26.0106 50.8554 26.186 50.7969ZM29.4796 58.2612C27.3553 57.813 24.9582 57.1503 23.7304 55.2989C23.7304 55.2404 23.6719 55.2404 23.6135 55.2404C23.555 55.2404 23.555 55.2989 23.555 55.3573C23.555 55.4743 23.555 55.5717 23.6135 55.6887L23.4575 55.7471C23.1262 55.2989 23.0678 54.7532 23.3991 54.3049C23.8473 53.7398 24.8413 53.7982 25.4064 54.1295L25.2895 54.3049C25.0167 54.2465 24.6853 54.2465 24.4515 54.4219C24.2761 54.5388 24.2371 54.6947 24.3345 54.9286C25.387 56.8775 28.4077 57.2673 31.9548 56.9944C32.3445 56.936 32.403 56.78 32.4615 56.6046C32.7928 55.3768 33.358 54.266 34.196 53.4279C33.5334 53.5449 32.9097 53.5449 32.4225 53.6033C30.5905 53.7203 29.5186 53.4864 29.1873 53.2136L29.2458 53.0382C29.4602 53.0966 29.6356 53.0966 29.694 53.0382C29.7525 52.9797 29.694 52.9212 29.6356 52.8238C29.3042 52.4925 27.6867 50.8749 27.6867 50.8749C27.5113 49.5301 25.5234 49.4911 24.7438 50.8164L24.471 50.7579C24.5294 50.4851 24.6853 50.1928 24.8023 50.0368C23.1262 50.4266 22.1908 51.9273 22.0154 53.3695C21.2943 59.6059 30.7075 58.1638 33.3774 60.5999C33.4359 60.6584 33.5529 60.8143 33.6503 60.7168C33.7088 60.366 32.5394 58.9238 29.4796 58.2612Z" fill="white"></path> <path d="M40.1596 67.5575C38.6589 68.5514 35.9304 69.8962 32.3055 70.1106C30.2397 70.286 27.8035 69.9936 25.9521 69.5064C25.9521 70.1106 25.8351 70.7342 25.7767 71.3384C26.7706 71.6112 28.5636 71.9425 31.1751 72.001C31.0582 72.7221 30.3371 75.0608 28.5636 76.6199C31.8572 76.7368 34.8586 75.4505 35.755 73.7745C34.8001 74.0473 33.2994 74.3787 31.6818 74.3397C31.7988 74.1643 31.8572 74.0084 31.8962 73.833C34.6832 73.716 37.7429 72.7806 38.3471 70.5003C37.2947 71.2214 34.8975 72.0595 32.3834 72.1764C32.4419 72.001 32.4419 71.8451 32.4419 71.6697C35.8135 71.2799 39.2631 69.8377 40.1596 67.5575Z" fill="white"></path> <path d="M63.6635 46.8405H59.5903C58.7522 46.8405 58.0896 47.4447 58.0896 48.3996V57.7544C58.0896 58.7093 58.7522 59.1966 59.5903 59.1966H63.6635C67.2884 59.1966 70.0753 56.6825 70.0753 53.0185C70.0169 49.2961 67.2884 46.8405 63.6635 46.8405ZM63.6635 56.3122H61.1104V49.6859H63.6635C65.7293 49.6859 67.113 50.9137 67.113 52.9796C67.113 55.0454 65.7293 56.3122 63.6635 56.3122Z" fill="black"></path> <path d="M91.7861 46.8405H87.7129C86.8749 46.8405 86.2123 47.4447 86.2123 48.3996V57.7544C86.2123 58.7093 86.8749 59.1966 87.7129 59.1966H91.7861C95.4111 59.1966 98.198 56.6825 98.198 53.0185C98.1785 49.2961 95.3916 46.8405 91.7861 46.8405ZM91.7861 56.3122H89.2331V49.6859H91.7861C93.852 49.6859 95.2357 50.9137 95.2357 52.9796C95.2357 55.0454 93.8325 56.3122 91.7861 56.3122Z" fill="black"></path> <path d="M106.091 46.7236C102.525 46.7236 99.7376 49.3936 99.7376 53.0185C99.7376 56.6435 102.466 59.3135 106.091 59.3135C109.658 59.3135 112.444 56.585 112.444 52.9601C112.444 49.4131 109.658 46.7236 106.091 46.7236ZM106.091 56.4681C104.142 56.4681 102.7 55.0259 102.7 52.9601C102.7 51.0112 104.084 49.5105 106.091 49.5105C108.04 49.5105 109.482 50.9527 109.482 52.9601C109.482 55.0259 108.157 56.4681 106.091 56.4681Z" fill="black"></path> <path d="M77.9099 46.7236C74.3434 46.7236 71.5565 49.3936 71.5565 53.0185C71.5565 56.6435 74.285 59.3135 77.9099 59.3135C81.4764 59.3135 84.2634 56.585 84.2634 52.9601C84.2634 49.4131 81.5349 46.7236 77.9099 46.7236ZM77.9099 56.4681C75.961 56.4681 74.5189 55.0259 74.5189 52.9601C74.5189 51.0112 75.9026 49.5105 77.9099 49.5105C79.8588 49.5105 81.301 50.9527 81.301 52.9601C81.3205 55.0259 79.9758 56.4681 77.9099 56.4681Z" fill="black"></path> <path d="M64.5989 65.667H59.5902C58.7522 65.667 58.148 66.2322 58.148 67.1092V76.6393C58.148 77.5943 58.8106 78.0815 59.6487 78.0815C60.4867 78.0815 61.0909 77.5163 61.0909 76.6393V74.4176H64.5404C67.2104 74.4176 68.9449 72.5271 68.9449 70.013C69.0034 67.5574 67.3273 65.667 64.5989 65.667ZM64.5989 71.6306H61.1493V68.5124H64.5989C65.5928 68.5124 66.0995 69.2335 66.0995 70.0715C66.119 70.9485 65.6123 71.6306 64.5989 71.6306Z" fill="black"></path> <path d="M72.8426 65.6087C72.0046 65.6087 71.2835 66.1739 71.2835 67.1094V76.6785C71.2835 77.6334 72.0046 78.1791 72.8426 78.1791C73.6807 78.1791 74.4018 77.6139 74.4018 76.6785V67.1094C74.4018 66.1739 73.6807 65.6087 72.8426 65.6087Z" fill="black"></path> <path d="M86.8748 75.1779H80.6968L86.8163 69.6625C87.7128 68.8829 88.0441 68.2788 88.0441 67.4408V67.3238C88.0441 66.3299 87.44 65.7062 86.3096 65.7062H78.4555C77.5006 65.7062 77.0134 66.3689 77.0134 67.1484C77.0134 67.9865 77.5785 68.5321 78.4555 68.5321H84.1853L78.2801 73.8721C77.1108 74.9245 76.838 75.5482 76.838 76.2693V76.3862C76.838 77.3802 77.4421 78.0038 78.5725 78.0038H86.8748C87.8298 78.0038 88.317 77.3996 88.317 76.5616C88.3754 75.8015 87.8298 75.1779 86.8748 75.1779Z" fill="black"></path> <path d="M99.8545 75.1779H93.6764L99.796 69.6625C100.692 68.8829 101.024 68.2788 101.024 67.4408V67.3238C101.024 66.3299 100.42 65.7062 99.2893 65.7062H91.4352C90.4802 65.7062 89.993 66.3689 89.993 67.1484C89.993 67.9865 90.5582 68.5321 91.4352 68.5321H97.165L91.2793 73.9111C90.1099 74.9635 89.8371 75.5872 89.8371 76.3083V76.4252C89.8371 77.4191 90.4413 78.0428 91.5716 78.0428H99.8545C100.809 78.0428 101.297 77.4386 101.297 76.6006C101.355 75.8015 100.809 75.1779 99.8545 75.1779Z" fill="black"></path> <path d="M114.842 75.9574L110.768 67.1094C110.32 66.1154 109.658 65.7256 108.761 65.7256H108.586C107.631 65.7256 106.968 66.1739 106.52 67.1094L102.447 75.9574C102.057 76.8539 102.33 77.6334 103.109 77.9063C103.83 78.1791 104.551 78.0232 104.941 77.1852L105.838 75.2363C106.676 75.5091 107.67 75.6845 108.625 75.6845C109.619 75.6845 110.515 75.5091 111.295 75.2363L112.191 77.1267C112.581 77.9648 113.36 78.1207 114.023 77.8478C114.881 77.575 115.231 76.7954 114.842 75.9574ZM108.703 73.0145C108.098 73.0145 107.416 72.9561 106.929 72.8002L108.664 68.9608L110.398 72.8002C109.93 72.8976 109.326 73.0145 108.703 73.0145Z" fill="black"></path> </svg> 