<?xml version="1.0" encoding="UTF-8"?> <svg xmlns="http://www.w3.org/2000/svg" width="56" height="42" viewBox="0 0 56 42" fill="none"> <rect width="56" height="42" fill="#000000"></rect> <path fill-rule="evenodd" clip-rule="evenodd" d="M21.4122 24.0579C19.6175 25.3687 17.2162 25.5395 16.2402 25.5395C9.45499 25.5395 8.27295 21.6078 8.27295 19.2946H12.0007C12.0007 20.3485 12.5659 22.3269 15.9582 22.3269C17.8092 22.3269 19.8676 21.8647 19.8676 19.91C19.8676 18.446 18.4524 18.0861 16.4733 17.5974L12.7211 16.6737C10.0745 16.0318 8.55492 14.4607 8.55492 11.6344C8.55492 9.57809 9.68879 5.9032 15.7298 5.9032C18.5195 5.9032 20.3088 6.79992 21.4122 7.98533V6.39054H25.0383V16.4682L29.6099 11.2223H34.0581L29.2005 16.5692L34.1882 25.0522H29.8423L26.5497 19.1143L25.0383 20.6806L25.0342 25.0522H21.4122V24.0579ZM14.1621 13.3044L18.7093 14.4113C19.6812 14.6559 20.6185 14.9575 21.4122 15.4211V11.9421H19.2481C19.1471 11.0949 18.8374 9.11513 15.4451 9.11513C13.954 9.11513 12.1803 9.68111 12.1803 11.3518C12.1803 12.8151 13.3881 13.1249 14.1621 13.3044Z" fill="white"></path> <path d="M9.44049 34.2382C9.56782 34.2892 9.85635 34.374 10.1789 34.374C11.1548 34.374 11.6301 33.8988 12.1902 32.6682L14.2271 28.2211H12.8098L11.4688 31.4037L10.1025 28.2211H8.63428L10.408 31.9553C10.5268 32.2014 10.6881 32.4729 10.6881 32.7361C10.6881 33.0076 10.4844 33.2538 10.077 33.2538C9.8309 33.2538 9.60174 33.1859 9.44049 33.118V34.2382Z" fill="white"></path> <path d="M17.0375 31.7007C16.8508 31.7516 16.3246 31.828 16.036 31.828C15.5014 31.828 15.3656 31.6073 15.3656 30.9709V29.8845H14.1689V31.217C14.1689 32.1506 14.6697 32.7361 15.6372 32.7361C16.1888 32.7361 16.7999 32.6003 17.0375 32.5409V34.2637H18.2342V29.8845H17.0375V31.7007Z" fill="white"></path> <path d="M23.2351 34.2638C23.0738 33.8904 23.0823 33.4746 23.0823 33.0756V31.1831C23.0823 29.961 22.0554 29.7573 21.1727 29.7573C19.9082 29.7573 19.2123 30.258 19.1444 31.234H20.2732C20.358 30.7333 20.5872 30.5635 21.1388 30.5635C21.6735 30.5635 21.9281 30.7502 21.9281 31.1492C21.9281 31.5056 21.6395 31.5735 20.8588 31.6753C19.9931 31.7857 18.9492 31.9215 18.9492 33.0672C18.9492 33.8904 19.5433 34.3911 20.5108 34.3911C21.037 34.3911 21.5547 34.2129 21.9281 33.8395C21.9451 34.0347 21.9536 34.1026 22.0129 34.2638H23.2351ZM21.9196 32.1336V32.6259C21.9196 33.2539 21.4783 33.6018 20.8503 33.6018C20.4344 33.6018 20.1883 33.3812 20.1883 33.0163C20.1883 32.4816 20.6551 32.4307 21.0709 32.3628C21.3764 32.3119 21.6395 32.2949 21.9196 32.1336Z" fill="white"></path> <path d="M28.2101 32.5749H27.0474C26.9541 33.1521 26.6316 33.4576 26.1139 33.4576C25.4689 33.4576 25.0954 32.9568 25.0954 32.0827C25.0954 31.1831 25.4859 30.6569 26.1393 30.6569C26.6061 30.6569 26.9202 30.9285 27.005 31.4122H28.1847C28.0829 30.3938 27.302 29.7573 26.1309 29.7573C24.7729 29.7573 23.8818 30.6909 23.8818 32.1082C23.8818 33.4746 24.7645 34.3741 26.1139 34.3741C27.2766 34.3741 28.0573 33.7122 28.2101 32.5749Z" fill="white"></path> <path d="M32.4674 30.8096V29.8845H28.3853V30.8096H29.828V34.2637H31.0246V30.8096H32.4674Z" fill="white"></path> <path d="M37.1007 34.2637V29.8845H35.9041V31.4715H34.2152V29.8845H33.0186V34.2637H34.2152V32.4221H35.9041V34.2637H37.1007Z" fill="white"></path> <path d="M42.132 34.2637V29.8845H40.7656L39.204 32.8465V29.8845H38.0498V34.2637H39.4162L40.9778 31.3018V34.2637H42.132Z" fill="white"></path> <path d="M47.5363 34.2637L45.6013 31.5819L47.2987 29.8845H45.8814L44.2773 31.6159V29.8845H43.0977V34.2637H44.2773V32.9228L44.812 32.3796L46.0765 34.2637H47.5363Z" fill="white"></path> </svg> 