<?xml version="1.0" encoding="UTF-8"?> <svg xmlns="http://www.w3.org/2000/svg" width="640" height="310" viewBox="0 0 640 310" fill="none"> <path fill-rule="evenodd" clip-rule="evenodd" d="M15.8579 25.8579C10 31.7157 10 41.1438 10 60V80C10 87.0488 10 92.7802 10.306 97.5C10 102.22 10 107.951 10 115V210C10 228.856 10 238.284 15.8579 244.142C21.7157 250 31.1438 250 50 250H590C608.856 250 618.284 250 624.142 244.142C630 238.284 630 228.856 630 210V115C630 96.1438 630 86.7157 624.142 80.8579C618.284 75 608.856 75 590 75H169C160.716 75 154 68.2843 154 60C154 41.1438 154 31.7157 148.142 25.8579C142.284 20 132.856 20 114 20H50C31.1438 20 21.7157 20 15.8579 25.8579Z" fill="white" fill-opacity="0.9"></path> <g filter="url(#filter0_bd)"> <path fill-rule="evenodd" clip-rule="evenodd" d="M15.8579 25.8579C10 31.7157 10 41.1438 10 60V80C10 87.0488 10 92.7802 10.306 97.5C10 102.22 10 107.951 10 115V210C10 228.856 10 238.284 15.8579 244.142C21.7157 250 31.1438 250 50 250H590C608.856 250 618.284 250 624.142 244.142C630 238.284 630 228.856 630 210V115C630 96.1438 630 86.7157 624.142 80.8579C618.284 75 608.856 75 590 75H169C160.716 75 154 68.2843 154 60C154 41.1438 154 31.7157 148.142 25.8579C142.284 20 132.856 20 114 20H50C31.1438 20 21.7157 20 15.8579 25.8579Z" fill="white" fill-opacity="0.15"></path> </g> <mask id="path-3-inside-1" fill="white"> <path fill-rule="evenodd" clip-rule="evenodd" d="M15.8579 25.8579C10 31.7157 10 41.1438 10 60V80C10 87.0488 10 92.7802 10.306 97.5C10 102.22 10 107.951 10 115V210C10 228.856 10 238.284 15.8579 244.142C21.7157 250 31.1438 250 50 250H590C608.856 250 618.284 250 624.142 244.142C630 238.284 630 228.856 630 210V115C630 96.1438 630 86.7157 624.142 80.8579C618.284 75 608.856 75 590 75H169C160.716 75 154 68.2843 154 60C154 41.1438 154 31.7157 148.142 25.8579C142.284 20 132.856 20 114 20H50C31.1438 20 21.7157 20 15.8579 25.8579Z"></path> </mask> <path d="M10.306 97.5L12.3018 97.6294L12.3102 97.5L12.3018 97.3706L10.306 97.5ZM12 60C12 50.5154 12.0042 43.6031 12.7144 38.3211C13.4168 33.0966 14.7767 29.7675 17.2721 27.2721L14.4437 24.4437C11.0812 27.8061 9.51212 32.12 8.75007 37.7881C7.99575 43.3986 8 50.6284 8 60H12ZM12 80V60H8V80H12ZM12.3018 97.3706C12.0009 92.7298 12 87.0721 12 80H8C8 87.0256 7.99907 92.8305 8.3102 97.6294L12.3018 97.3706ZM12 115C12 107.928 12.0009 102.27 12.3018 97.6294L8.3102 97.3706C7.99907 102.169 8 107.974 8 115H12ZM12 210V115H8V210H12ZM17.2721 242.728C14.7767 240.233 13.4168 236.903 12.7144 231.679C12.0042 226.397 12 219.485 12 210H8C8 219.372 7.99575 226.601 8.75007 232.212C9.51212 237.88 11.0812 242.194 14.4437 245.556L17.2721 242.728ZM50 248C40.5154 248 33.6031 247.996 28.3211 247.286C23.0966 246.583 19.7675 245.223 17.2721 242.728L14.4437 245.556C17.8061 248.919 22.12 250.488 27.7881 251.25C33.3986 252.004 40.6284 252 50 252V248ZM590 248H50V252H590V248ZM622.728 242.728C620.233 245.223 616.903 246.583 611.679 247.286C606.397 247.996 599.485 248 590 248V252C599.372 252 606.601 252.004 612.212 251.25C617.88 250.488 622.194 248.919 625.556 245.556L622.728 242.728ZM628 210C628 219.485 627.996 226.397 627.286 231.679C626.583 236.903 625.223 240.233 622.728 242.728L625.556 245.556C628.919 242.194 630.488 237.88 631.25 232.212C632.004 226.601 632 219.372 632 210H628ZM628 115V210H632V115H628ZM622.728 82.2721C625.223 84.7675 626.583 88.0966 627.286 93.3211C627.996 98.6031 628 105.515 628 115H632C632 105.628 632.004 98.3986 631.25 92.7881C630.488 87.12 628.919 82.8061 625.556 79.4437L622.728 82.2721ZM590 77C599.485 77 606.397 77.0042 611.679 77.7144C616.903 78.4168 620.233 79.7767 622.728 82.2721L625.556 79.4437C622.194 76.0812 617.88 74.5121 612.212 73.7501C606.601 72.9958 599.372 73 590 73V77ZM169 77H590V73H169V77ZM146.728 27.2721C149.223 29.7675 150.583 33.0966 151.286 38.3211C151.996 43.6031 152 50.5154 152 60H156C156 50.6285 156.004 43.3986 155.25 37.7881C154.488 32.12 152.919 27.8061 149.556 24.4437L146.728 27.2721ZM114 22C123.485 22 130.397 22.0042 135.679 22.7144C140.903 23.4168 144.233 24.7767 146.728 27.2721L149.556 24.4437C146.194 21.0812 141.88 19.5121 136.212 18.7501C130.601 17.9958 123.372 18 114 18V22ZM50 22H114V18H50V22ZM17.2721 27.2721C19.7675 24.7767 23.0966 23.4168 28.3211 22.7144C33.6031 22.0042 40.5154 22 50 22V18C40.6285 18 33.3986 17.9958 27.7881 18.7501C22.12 19.5121 17.8061 21.0812 14.4437 24.4437L17.2721 27.2721ZM169 73C161.82 73 156 67.1797 156 60H152C152 69.3888 159.611 77 169 77V73Z" fill="white" mask="url(#path-3-inside-1)"></path> <defs> <filter id="filter0_bd" x="-30" y="0" width="700" height="310" filterUnits="userSpaceOnUse" color-interpolation-filters="sRGB"> <feFlood flood-opacity="0" result="BackgroundImageFix"></feFlood> <feGaussianBlur in="BackgroundImage" stdDeviation="5"></feGaussianBlur> <feComposite in2="SourceAlpha" operator="in" result="effect1_backgroundBlur"></feComposite> <feColorMatrix in="SourceAlpha" type="matrix" values="0 0 0 0 0 0 0 0 0 0 0 0 0 0 0 0 0 0 127 0"></feColorMatrix> <feOffset dy="20"></feOffset> <feGaussianBlur stdDeviation="20"></feGaussianBlur> <feColorMatrix type="matrix" values="0 0 0 0 0.886275 0 0 0 0 0.498039 0 0 0 0 0.74902 0 0 0 0.2 0"></feColorMatrix> <feBlend mode="normal" in2="effect1_backgroundBlur" result="effect2_dropShadow"></feBlend> <feBlend mode="normal" in="SourceGraphic" in2="effect2_dropShadow" result="shape"></feBlend> </filter> </defs> </svg> 