<?xml version="1.0" encoding="UTF-8"?> <svg xmlns="http://www.w3.org/2000/svg" width="320" height="274" viewBox="0 0 320 274" fill="none"> <path fill-rule="evenodd" clip-rule="evenodd" d="M15.8579 30.8579C10 36.7157 10 46.1438 10 65V85C10 92.0488 10 97.7802 10.306 102.5C10 107.22 10 112.951 10 120V179C10 197.856 10 207.284 15.8579 213.142C21.7157 219 31.1438 219 50 219H270C288.856 219 298.284 219 304.142 213.142C310 207.284 310 197.856 310 179V120C310 101.144 310 91.7157 304.142 85.8579C298.284 80 288.856 80 270 80H139C130.716 80 124 73.2843 124 65C124 46.1438 124 36.7157 118.142 30.8579C112.284 25 102.856 25 84 25H50C31.1438 25 21.7157 25 15.8579 30.8579Z" fill="white" fill-opacity="0.9"></path> <g filter="url(#filter0_bd)"> <path fill-rule="evenodd" clip-rule="evenodd" d="M15.8579 30.8579C10 36.7157 10 46.1438 10 65V85C10 92.0488 10 97.7802 10.306 102.5C10 107.22 10 112.951 10 120V179C10 197.856 10 207.284 15.8579 213.142C21.7157 219 31.1438 219 50 219H270C288.856 219 298.284 219 304.142 213.142C310 207.284 310 197.856 310 179V120C310 101.144 310 91.7157 304.142 85.8579C298.284 80 288.856 80 270 80H139C130.716 80 124 73.2843 124 65C124 46.1438 124 36.7157 118.142 30.8579C112.284 25 102.856 25 84 25H50C31.1438 25 21.7157 25 15.8579 30.8579Z" fill="white" fill-opacity="0.15"></path> </g> <mask id="path-3-inside-1" fill="white"> <path fill-rule="evenodd" clip-rule="evenodd" d="M15.8579 30.8579C10 36.7157 10 46.1438 10 65V85C10 92.0488 10 97.7802 10.306 102.5C10 107.22 10 112.951 10 120V179C10 197.856 10 207.284 15.8579 213.142C21.7157 219 31.1438 219 50 219H270C288.856 219 298.284 219 304.142 213.142C310 207.284 310 197.856 310 179V120C310 101.144 310 91.7157 304.142 85.8579C298.284 80 288.856 80 270 80H139C130.716 80 124 73.2843 124 65C124 46.1438 124 36.7157 118.142 30.8579C112.284 25 102.856 25 84 25H50C31.1438 25 21.7157 25 15.8579 30.8579Z"></path> </mask> <path d="M10.306 102.5L12.3018 102.629L12.3102 102.5L12.3018 102.371L10.306 102.5ZM304.142 213.142L305.556 214.556L304.142 213.142ZM304.142 85.8579L305.556 84.4437V84.4436L304.142 85.8579ZM12 65C12 55.5154 12.0042 48.6031 12.7144 43.3211C13.4168 38.0966 14.7767 34.7675 17.2721 32.2721L14.4437 29.4437C11.0812 32.8061 9.51212 37.12 8.75007 42.7881C7.99575 48.3986 8 55.6284 8 65H12ZM12 85V65H8V85H12ZM12.3018 102.371C12.0009 97.7298 12 92.0721 12 85H8C8 92.0256 7.99907 97.8305 8.3102 102.629L12.3018 102.371ZM12 120C12 112.928 12.0009 107.27 12.3018 102.629L8.3102 102.371C7.99907 107.169 8 112.974 8 120H12ZM12 179V120H8V179H12ZM17.2721 211.728C14.7767 209.233 13.4168 205.903 12.7144 200.679C12.0042 195.397 12 188.485 12 179H8C8 188.372 7.99575 195.601 8.75007 201.212C9.51212 206.88 11.0812 211.194 14.4437 214.556L17.2721 211.728ZM50 217C40.5154 217 33.6031 216.996 28.3211 216.286C23.0966 215.583 19.7675 214.223 17.2721 211.728L14.4437 214.556C17.8061 217.919 22.12 219.488 27.7881 220.25C33.3986 221.004 40.6284 221 50 221V217ZM270 217H50V221H270V217ZM302.728 211.728C300.233 214.223 296.903 215.583 291.679 216.286C286.397 216.996 279.485 217 270 217V221C279.372 221 286.601 221.004 292.212 220.25C297.88 219.488 302.194 217.919 305.556 214.556L302.728 211.728ZM308 179C308 188.485 307.996 195.397 307.286 200.679C306.583 205.903 305.223 209.233 302.728 211.728L305.556 214.556C308.919 211.194 310.488 206.88 311.25 201.212C312.004 195.601 312 188.372 312 179H308ZM308 120V179H312V120H308ZM302.728 87.2721C305.223 89.7675 306.583 93.0966 307.286 98.3211C307.996 103.603 308 110.515 308 120H312C312 110.628 312.004 103.399 311.25 97.7881C310.488 92.12 308.919 87.8061 305.556 84.4437L302.728 87.2721ZM270 82C279.485 82 286.397 82.0042 291.679 82.7144C296.903 83.4168 300.233 84.7767 302.728 87.2721L305.556 84.4436C302.194 81.0812 297.88 79.5121 292.212 78.7501C286.601 77.9958 279.372 78 270 78V82ZM139 82H270V78H139V82ZM116.728 32.2721C119.223 34.7675 120.583 38.0966 121.286 43.3211C121.996 48.6031 122 55.5154 122 65H126C126 55.6285 126.004 48.3986 125.25 42.7881C124.488 37.12 122.919 32.8061 119.556 29.4437L116.728 32.2721ZM84 27C93.4846 27 100.397 27.0042 105.679 27.7144C110.903 28.4168 114.233 29.7767 116.728 32.2721L119.556 29.4437C116.194 26.0812 111.88 24.5121 106.212 23.7501C100.601 22.9958 93.3716 23 84 23V27ZM50 27H84V23H50V27ZM17.2721 32.2721C19.7675 29.7767 23.0966 28.4168 28.3211 27.7144C33.6031 27.0042 40.5154 27 50 27V23C40.6285 23 33.3986 22.9958 27.7881 23.7501C22.12 24.5121 17.8061 26.0812 14.4437 29.4437L17.2721 32.2721ZM139 78C131.82 78 126 72.1797 126 65H122C122 74.3888 129.611 82 139 82V78Z" fill="white" mask="url(#path-3-inside-1)"></path> <defs> <filter id="filter0_bd" x="-30" y="0" width="380" height="274" filterUnits="userSpaceOnUse" color-interpolation-filters="sRGB"> <feFlood flood-opacity="0" result="BackgroundImageFix"></feFlood> <feGaussianBlur in="BackgroundImage" stdDeviation="5"></feGaussianBlur> <feComposite in2="SourceAlpha" operator="in" result="effect1_backgroundBlur"></feComposite> <feColorMatrix in="SourceAlpha" type="matrix" values="0 0 0 0 0 0 0 0 0 0 0 0 0 0 0 0 0 0 127 0"></feColorMatrix> <feOffset dy="15"></feOffset> <feGaussianBlur stdDeviation="20"></feGaussianBlur> <feColorMatrix type="matrix" values="0 0 0 0 0.886275 0 0 0 0 0.498039 0 0 0 0 0.74902 0 0 0 0.2 0"></feColorMatrix> <feBlend mode="normal" in2="effect1_backgroundBlur" result="effect2_dropShadow"></feBlend> <feBlend mode="normal" in="SourceGraphic" in2="effect2_dropShadow" result="shape"></feBlend> </filter> </defs> </svg> 