<?xml version="1.0" encoding="UTF-8"?> <svg xmlns="http://www.w3.org/2000/svg" width="560" height="330" viewBox="0 0 560 330" fill="none"> <path fill-rule="evenodd" clip-rule="evenodd" d="M55.8579 20.8579C50 26.7157 50 36.1438 50 55V75C50 82.0488 50 87.7802 50.306 92.5C50 97.2198 50 102.951 50 110V205C50 223.856 50 233.284 55.8579 239.142C61.7157 245 71.1438 245 90 245H470C488.856 245 498.284 245 504.142 239.142C510 233.284 510 223.856 510 205V110C510 91.1438 510 81.7157 504.142 75.8579C498.284 70 488.856 70 470 70H209C200.716 70 194 63.2843 194 55C194 36.1438 194 26.7157 188.142 20.8579C182.284 15 172.856 15 154 15H90C71.1438 15 61.7157 15 55.8579 20.8579Z" fill="white" fill-opacity="0.9"></path> <g filter="url(#filter0_bd)"> <path fill-rule="evenodd" clip-rule="evenodd" d="M55.8579 20.8579C50 26.7157 50 36.1438 50 55V75C50 82.0488 50 87.7802 50.306 92.5C50 97.2198 50 102.951 50 110V205C50 223.856 50 233.284 55.8579 239.142C61.7157 245 71.1438 245 90 245H470C488.856 245 498.284 245 504.142 239.142C510 233.284 510 223.856 510 205V110C510 91.1438 510 81.7157 504.142 75.8579C498.284 70 488.856 70 470 70H209C200.716 70 194 63.2843 194 55C194 36.1438 194 26.7157 188.142 20.8579C182.284 15 172.856 15 154 15H90C71.1438 15 61.7157 15 55.8579 20.8579Z" fill="white" fill-opacity="0.15"></path> </g> <mask id="path-3-inside-1" fill="white"> <path fill-rule="evenodd" clip-rule="evenodd" d="M55.8579 20.8579C50 26.7157 50 36.1438 50 55V75C50 82.0488 50 87.7802 50.306 92.5C50 97.2198 50 102.951 50 110V205C50 223.856 50 233.284 55.8579 239.142C61.7157 245 71.1438 245 90 245H470C488.856 245 498.284 245 504.142 239.142C510 233.284 510 223.856 510 205V110C510 91.1438 510 81.7157 504.142 75.8579C498.284 70 488.856 70 470 70H209C200.716 70 194 63.2843 194 55C194 36.1438 194 26.7157 188.142 20.8579C182.284 15 172.856 15 154 15H90C71.1438 15 61.7157 15 55.8579 20.8579Z"></path> </mask> <path d="M50.306 92.5L52.3018 92.6294L52.3102 92.5L52.3018 92.3706L50.306 92.5ZM504.142 239.142L505.556 240.556L504.142 239.142ZM504.142 75.8579L505.556 74.4437V74.4436L504.142 75.8579ZM52 55C52 45.5154 52.0042 38.6031 52.7144 33.3211C53.4168 28.0966 54.7767 24.7675 57.2721 22.2721L54.4437 19.4437C51.0812 22.8061 49.5121 27.12 48.7501 32.7881C47.9958 38.3986 48 45.6284 48 55H52ZM52 75V55H48V75H52ZM52.3018 92.3706C52.0009 87.7298 52 82.0721 52 75H48C48 82.0256 47.9991 87.8305 48.3102 92.6294L52.3018 92.3706ZM52 110C52 102.928 52.0009 97.2702 52.3018 92.6294L48.3102 92.3706C47.9991 97.1695 48 102.974 48 110H52ZM52 205V110H48V205H52ZM57.2721 237.728C54.7767 235.233 53.4168 231.903 52.7144 226.679C52.0042 221.397 52 214.485 52 205H48C48 214.372 47.9958 221.601 48.7501 227.212C49.5121 232.88 51.0812 237.194 54.4437 240.556L57.2721 237.728ZM90 243C80.5154 243 73.6031 242.996 68.3211 242.286C63.0966 241.583 59.7675 240.223 57.2721 237.728L54.4437 240.556C57.8061 243.919 62.12 245.488 67.7881 246.25C73.3986 247.004 80.6284 247 90 247V243ZM470 243H90V247H470V243ZM502.728 237.728C500.233 240.223 496.903 241.583 491.679 242.286C486.397 242.996 479.485 243 470 243V247C479.372 247 486.601 247.004 492.212 246.25C497.88 245.488 502.194 243.919 505.556 240.556L502.728 237.728ZM508 205C508 214.485 507.996 221.397 507.286 226.679C506.583 231.903 505.223 235.233 502.728 237.728L505.556 240.556C508.919 237.194 510.488 232.88 511.25 227.212C512.004 221.601 512 214.372 512 205H508ZM508 110V205H512V110H508ZM502.728 77.2721C505.223 79.7675 506.583 83.0966 507.286 88.3211C507.996 93.6031 508 100.515 508 110H512C512 100.628 512.004 93.3986 511.25 87.7881C510.488 82.12 508.919 77.8061 505.556 74.4437L502.728 77.2721ZM470 72C479.485 72 486.397 72.0042 491.679 72.7144C496.903 73.4168 500.233 74.7767 502.728 77.2721L505.556 74.4436C502.194 71.0812 497.88 69.5121 492.212 68.7501C486.601 67.9958 479.372 68 470 68V72ZM209 72H470V68H209V72ZM186.728 22.2721C189.223 24.7675 190.583 28.0966 191.286 33.3211C191.996 38.6031 192 45.5154 192 55H196C196 45.6285 196.004 38.3986 195.25 32.7881C194.488 27.12 192.919 22.8061 189.556 19.4437L186.728 22.2721ZM154 17C163.485 17 170.397 17.0042 175.679 17.7144C180.903 18.4168 184.233 19.7767 186.728 22.2721L189.556 19.4437C186.194 16.0812 181.88 14.5121 176.212 13.7501C170.601 12.9958 163.372 13 154 13V17ZM90 17H154V13H90V17ZM57.2721 22.2721C59.7675 19.7767 63.0966 18.4168 68.3211 17.7144C73.6031 17.0042 80.5154 17 90 17V13C80.6285 13 73.3986 12.9958 67.7881 13.7501C62.12 14.5121 57.8061 16.0812 54.4437 19.4437L57.2721 22.2721ZM209 68C201.82 68 196 62.1797 196 55H192C192 64.3888 199.611 72 209 72V68Z" fill="white" mask="url(#path-3-inside-1)"></path> <defs> <filter id="filter0_bd" x="0" y="0" width="560" height="330" filterUnits="userSpaceOnUse" color-interpolation-filters="sRGB"> <feFlood flood-opacity="0" result="BackgroundImageFix"></feFlood> <feGaussianBlur in="BackgroundImage" stdDeviation="5"></feGaussianBlur> <feComposite in2="SourceAlpha" operator="in" result="effect1_backgroundBlur"></feComposite> <feColorMatrix in="SourceAlpha" type="matrix" values="0 0 0 0 0 0 0 0 0 0 0 0 0 0 0 0 0 0 127 0"></feColorMatrix> <feOffset dy="35"></feOffset> <feGaussianBlur stdDeviation="25"></feGaussianBlur> <feColorMatrix type="matrix" values="0 0 0 0 0.886275 0 0 0 0 0.498039 0 0 0 0 0.74902 0 0 0 0.2 0"></feColorMatrix> <feBlend mode="normal" in2="effect1_backgroundBlur" result="effect2_dropShadow"></feBlend> <feBlend mode="normal" in="SourceGraphic" in2="effect2_dropShadow" result="shape"></feBlend> </filter> </defs> </svg> 