<?xml version="1.0" encoding="UTF-8"?> <svg xmlns="http://www.w3.org/2000/svg" width="36" height="36" viewBox="0 0 36 36" fill="none"> <path fill-rule="evenodd" clip-rule="evenodd" d="M26.8035 10.605C27.7672 10.8645 28.5271 11.6244 28.7866 12.5882C29.2684 14.3489 29.2499 18.0185 29.2499 18.0185C29.2499 18.0185 29.2499 21.6697 28.7866 23.4304C28.5271 24.3941 27.7672 25.154 26.8035 25.4135C25.0428 25.8768 18 25.8768 18 25.8768C18 25.8768 10.9757 25.8768 9.19645 25.3949C8.2327 25.1355 7.47281 24.3756 7.21334 23.4118C6.75 21.6697 6.75 18 6.75 18C6.75 18 6.75 14.3489 7.21334 12.5882C7.47281 11.6244 8.25123 10.846 9.19645 10.5865C10.9571 10.1232 18 10.1232 18 10.1232C18 10.1232 25.0428 10.1232 26.8035 10.605ZM21.614 18L15.7574 21.3731V14.6269L21.614 18Z" fill="black"></path> </svg> 