<?xml version="1.0" encoding="UTF-8"?> <svg xmlns="http://www.w3.org/2000/svg" width="300" height="60" viewBox="0 0 300 60" fill="none"> <path d="M161.114 33.4865C161.114 32.7279 160.918 32.1408 160.552 31.6515C159.793 30.5749 158.324 30.0366 156.71 29.6206C156.049 29.4495 155.316 29.2781 154.777 28.9845C154.336 28.7154 154.117 28.4462 154.117 27.9569H154.068H154.117C154.117 27.1251 155.144 26.7337 156.392 26.7337C157.885 26.7337 159.304 27.0761 160.552 27.7613V25.2166C159.255 24.654 157.836 24.3604 156.392 24.3604C155.095 24.3604 153.75 24.654 152.869 25.339C151.988 26.0241 151.621 26.9293 151.621 28.0793C151.621 30.4526 153.676 31.3578 156.025 31.945C156.686 32.1163 157.419 32.2876 157.958 32.5812C158.398 32.8502 158.618 33.1194 158.618 33.6088C158.618 34.4651 157.713 34.881 156.221 34.881C154.63 34.881 153.137 34.6119 151.792 34.1226V36.4958C153.186 36.9607 154.679 37.2299 156.221 37.2299C157.615 37.2299 158.863 36.8873 159.817 36.2268C160.135 36.0065 160.38 35.7373 160.576 35.4682C160.942 34.9055 161.114 34.2449 161.114 33.4865Z" fill="#090A0E"></path> <path d="M144.325 26.6833C145.499 26.6833 146.258 27.0993 146.722 27.7354C147.187 28.3715 147.285 29.1789 147.285 29.8395V36.886H149.83V29.7417C149.83 28.2492 149.463 26.9769 148.607 25.9982C148.582 25.9738 148.582 25.9738 148.558 25.9493C147.702 24.9951 146.551 24.3345 144.986 24.3345C143.493 24.3345 142.27 24.8728 141.388 25.5824V24.6526H138.844V36.886H141.388V29.8395C141.388 29.1789 141.56 28.445 142.025 27.8332C142.245 27.5641 142.466 27.3194 142.758 27.1482C143.175 26.8546 143.689 26.6833 144.325 26.6833Z" fill="#090A0E"></path> <path d="M135.985 24.6528H133.44V36.8862H135.985V24.6528Z" fill="#090A0E"></path> <path d="M134.712 19.3191C134.247 19.3191 133.856 19.4659 133.562 19.7839C133.244 20.1019 133.097 20.4934 133.097 20.9582C133.097 21.4229 133.244 21.8144 133.562 22.1324C133.88 22.4504 134.247 22.5972 134.712 22.5972C135.177 22.5972 135.568 22.4504 135.862 22.1324C136.18 21.8144 136.326 21.4229 136.326 20.9582C136.326 20.4934 136.18 20.1019 135.862 19.7839C135.568 19.4659 135.177 19.3191 134.712 19.3191Z" fill="#090A0E"></path> <path d="M128.037 25.827C126.96 24.8238 125.443 24.3345 123.926 24.3345C122.164 24.3345 120.672 24.9461 119.424 26.194C119.082 26.5365 118.788 26.8791 118.543 27.2706C118.495 27.3439 118.446 27.4417 118.397 27.5152C117.834 28.4693 117.565 29.5704 117.565 30.7693C117.565 32.5553 118.176 34.0967 119.424 35.3445C120.672 36.5923 122.164 37.204 123.926 37.204C125.468 37.204 126.985 36.7147 128.037 35.6871V36.886H130.581V24.6526H128.037V25.827ZM126.887 33.6808C126.128 34.4392 125.174 34.8063 124.048 34.8063C122.923 34.8063 121.969 34.4392 121.21 33.6808C120.452 32.8978 120.085 31.9437 120.085 30.7937C120.085 29.6437 120.452 28.6896 121.21 27.931C121.969 27.1482 122.923 26.7811 124.048 26.7811C125.174 26.7811 126.128 27.1482 126.887 27.931C127.645 28.6896 128.012 29.6437 128.012 30.7937C128.012 31.9437 127.645 32.8978 126.887 33.6808Z" fill="#090A0E"></path> <path d="M116.388 24.4324C115.115 24.4324 113.598 24.9705 112.669 25.9248V24.677H110.124V36.9104H112.669V30.7692C112.669 27.9066 114.455 26.9279 116.534 26.9279C116.657 26.9279 116.828 26.9524 116.999 26.9769V24.4812C116.779 24.4567 116.51 24.4324 116.388 24.4324Z" fill="#090A0E"></path> <path d="M105.677 27.8831C106.802 27.0268 107.341 25.9747 107.341 24.5311C107.341 23.1856 106.802 21.9867 105.848 21.0814C104.894 20.1761 103.45 19.7112 102.08 19.7112H94.8381V36.8869H102.692C104.135 36.8869 105.555 36.422 106.558 35.4923C107.536 34.587 108.05 33.3636 108.05 31.9691C108.05 30.2564 107.194 28.6905 105.677 27.8831ZM97.4561 22.06H102.349C103.72 22.06 104.747 23.1366 104.747 24.5067C104.747 25.9013 103.695 26.9534 102.349 26.9534H97.4561V22.06ZM102.814 34.5625H97.4561V29.2778H102.814C104.233 29.2778 105.359 30.4277 105.359 31.9201C105.359 33.3881 104.233 34.5625 102.814 34.5625Z" fill="#090A0E"></path> <path d="M88.3494 30.6227L92.9003 24.6528H89.8173L85.34 30.6717L90.0865 36.8862H93.0959L88.3004 30.6472L88.3494 30.6227Z" fill="#090A0E"></path> <path d="M85.2454 19.6875H82.7009V36.8877H85.2454V19.6875Z" fill="#090A0E"></path> <path d="M74.7057 24.3152C72.8707 24.3152 71.3538 24.9269 70.1549 26.1502C68.9805 27.3491 68.3444 28.915 68.3444 30.75C68.3444 32.6584 69.005 34.1998 70.3017 35.3987C71.5984 36.5976 73.2866 37.1847 75.3663 37.1847C76.9812 37.1847 78.5715 36.7689 79.9906 36.1328V33.6615C78.6204 34.4444 77.0057 34.8604 75.3663 34.8604C73.3356 34.8604 71.4026 33.9796 70.9868 31.6308H80.5044C80.5778 31.4106 80.6267 30.7745 80.6267 30.1872C80.6267 29.0128 80.3331 27.5448 79.1097 26.1992C78.0333 24.9758 76.4429 24.3152 74.7057 24.3152ZM74.6324 26.7375C76.1982 26.7375 77.862 27.6916 78.1066 29.6001H71.0112C71.3783 27.6427 72.9685 26.7375 74.6324 26.7375Z" fill="#090A0E"></path> <path d="M64.9636 26.1014C63.8627 24.9513 62.3213 24.3152 60.6331 24.3152C58.7981 24.3152 57.2812 24.9269 56.0823 26.1502C54.9079 27.3491 54.2717 28.915 54.2717 30.75C54.2717 32.6584 54.9323 34.1998 56.2291 35.3987C56.6205 35.7413 57.0364 36.0593 57.5013 36.3039C58.5779 36.8912 59.8501 37.1847 61.3182 37.1847C62.9329 37.1847 64.5233 36.7689 65.9424 36.1328V33.6615C65.6242 33.8328 65.3062 34.0041 64.9881 34.1264C63.8627 34.6157 62.5904 34.8359 61.3182 34.8359C59.2874 34.8359 57.3545 33.9551 56.9385 31.6063H64.9636H66.4317C66.5051 31.3861 66.554 30.75 66.554 30.1627C66.554 28.9883 66.2604 27.5204 65.0371 26.1747C65.0126 26.1747 64.9881 26.1502 64.9636 26.1014ZM64.0095 29.6001H56.9141C57.3055 27.6672 58.8959 26.7375 60.5352 26.7375C62.1011 26.7375 63.7648 27.6916 64.0095 29.6001Z" fill="#090A0E"></path> <path d="M52.1977 28.4362V27.7756H44.2215V30.1978H49.5309V33.7699C48.3565 34.2349 47.0841 34.4795 45.763 34.4795C43.928 34.4795 42.411 33.8679 41.2122 32.6935C40.0867 31.5434 39.4995 30.1244 39.4995 28.3138C39.4995 26.5278 40.0622 25.1088 41.2122 23.9343C42.3621 22.7844 44.1482 22.1483 46.4235 22.1483C48.2097 22.1483 49.9224 22.5643 51.3903 23.3472V20.5579C49.8489 19.8728 48.1852 19.5059 46.4235 19.5059C43.5365 19.5303 40.8941 20.4356 39.3037 22.0505C37.64 23.7142 36.7347 25.8427 36.7347 28.3138C36.7347 30.785 37.64 32.9136 39.3037 34.6018C40.9674 36.2656 43.1939 37.122 45.7385 37.122C48.0629 37.122 50.2649 36.4613 52.1732 35.3113V34.2104V28.4362H52.1977Z" fill="#090A0E"></path> <path d="M16.4102 18.3936C15.9345 19.0423 15.6122 20.0884 15.6122 21.5814V23.5072C15.6122 24.1328 15.8252 24.7398 16.2159 25.2282L18.0906 27.5715C18.1809 27.5579 18.2733 27.5508 18.3673 27.5508C19.3817 27.5508 20.2041 28.3732 20.2041 29.3876C20.2041 30.4019 19.3817 31.2243 18.3673 31.2243C17.353 31.2243 16.5306 30.4019 16.5306 29.3876C16.5306 29.1516 16.5751 28.9259 16.6562 28.7188L14.7817 26.3757C14.1304 25.5614 13.7755 24.5499 13.7755 23.5072V21.5814C13.7755 19.8602 14.142 18.3808 14.9291 17.3075C15.7429 16.1977 16.9431 15.6121 18.3673 15.6121C20.6712 15.6121 22.6429 17.0252 23.4664 19.0306C25.562 19.6461 27.0918 21.5823 27.0918 23.8774C27.0918 24.3412 27.0823 24.8366 26.9461 25.3295C28.3984 26.1005 29.3878 27.6277 29.3878 29.3876C29.3878 31.1474 28.3984 32.6747 26.946 33.4457C27.0822 33.9385 27.0917 34.4338 27.0917 34.8977C27.0917 37.1927 25.5617 39.1289 23.4662 39.7444C22.6428 41.7496 20.671 43.163 18.3672 43.163C17.7673 43.163 17.188 43.0667 16.6451 42.8882L17.2188 41.1434C17.5789 41.2617 17.9646 41.3262 18.3672 41.3262C20.0295 41.3262 21.436 40.2214 21.8882 38.7041L22.05 38.1613L22.6078 38.0622C24.1124 37.7949 25.255 36.4787 25.255 34.8977C25.255 34.0992 25.193 33.8072 24.971 33.5374C24.6677 33.1688 24.2587 33.0307 23.8147 33.0781C23.3496 33.1277 22.8654 33.3853 22.5353 33.7979L21.456 35.1471C21.5371 35.3544 21.5816 35.5801 21.5816 35.8161C21.5816 36.8305 20.7593 37.6529 19.7449 37.6529C18.7305 37.6529 17.9082 36.8305 17.9082 35.8161C17.9082 34.8018 18.7305 33.9794 19.7449 33.9794C19.8388 33.9794 19.9311 33.9865 20.0214 34.0001L21.101 32.6506C21.7287 31.8659 22.6542 31.3547 23.6199 31.2517C24.4122 31.1671 25.2407 31.3601 25.9191 31.9044C26.8811 31.4743 27.551 30.5083 27.551 29.3876C27.551 28.2668 26.8811 27.3007 25.919 26.8708C25.2405 27.4149 24.4122 27.6079 23.6199 27.5233C22.6543 27.4202 21.7288 26.909 21.1011 26.1244L20.0216 24.775C19.9314 24.7886 19.8389 24.7957 19.7449 24.7957C18.7305 24.7957 17.9082 23.9734 17.9082 22.959C17.9082 21.9446 18.7305 21.1223 19.7449 21.1223C20.7593 21.1223 21.5816 21.9446 21.5816 22.959C21.5816 23.195 21.5372 23.4206 21.456 23.6278L22.5354 24.977C22.8655 25.3896 23.3497 25.6472 23.8149 25.697C24.2587 25.7443 24.6677 25.6062 24.9711 25.2377C25.1931 24.9678 25.2551 24.6759 25.2551 23.8774C25.2551 22.2962 24.1125 20.9801 22.6079 20.7128L22.0502 20.6137L21.8884 20.0709C21.4362 18.5535 20.0296 17.4488 18.3673 17.4488C17.4956 17.4488 16.8591 17.7815 16.4102 18.3936Z" fill="#090A0E"></path> <path d="M7.93171 35.1472C7.85063 35.3544 7.80612 35.5801 7.80612 35.816C7.80612 36.8304 8.62845 37.6528 9.64286 37.6528C10.6573 37.6528 11.4796 36.8304 11.4796 35.816C11.4796 34.8017 10.6573 33.9793 9.64286 33.9793C9.54879 33.9793 9.45638 33.9864 9.36612 34L8.28665 32.6506C7.65896 31.8661 6.73351 31.3548 5.76787 31.2517C4.9756 31.1671 4.1472 31.3601 3.46871 31.9043C2.50665 31.4743 1.83673 30.5082 1.83673 29.3874C1.83673 28.2667 2.50663 27.3007 3.46866 26.8706C4.14714 27.4149 4.97556 27.6079 5.76786 27.5233C6.73354 27.4203 7.65907 26.9091 8.2868 26.1244L9.36638 24.7749C9.45655 24.7885 9.54888 24.7956 9.64286 24.7956C10.6573 24.7956 11.4796 23.9732 11.4796 22.9589C11.4796 21.9445 10.6573 21.1221 9.64286 21.1221C8.62845 21.1221 7.80612 21.9445 7.80612 22.9589C7.80612 23.195 7.85066 23.4206 7.93179 23.6279L6.85254 24.9771C6.52239 25.3897 6.0382 25.6474 5.57298 25.697C5.12908 25.7443 4.72003 25.6062 4.41671 25.2377C4.1947 24.9678 4.1328 24.6759 4.1328 23.8774C4.1328 22.2963 5.27535 20.9801 6.78001 20.7128L7.33771 20.6137L7.4995 20.0709C7.95173 18.5537 9.35832 17.4488 11.0206 17.4488C11.4231 17.4488 11.8088 17.5133 12.169 17.6316L12.7427 15.8868C12.1997 15.7083 11.6204 15.6121 11.0206 15.6121C8.71673 15.6121 6.74502 17.0254 5.92152 19.0306C3.826 19.6461 2.29607 21.5823 2.29607 23.8774C2.29607 24.3412 2.3056 24.8365 2.44172 25.3294C0.989442 26.1003 0 27.6276 0 29.3874C0 31.1473 0.989399 32.6745 2.44163 33.4455C2.30546 33.9384 2.29592 34.4338 2.29592 34.8977C2.29592 37.1927 3.82585 39.1289 5.92136 39.7444C6.74487 41.7496 8.71658 43.163 11.0204 43.163C12.4446 43.163 13.6449 42.5773 14.4587 41.4675C15.2458 40.3943 15.6122 38.9148 15.6122 37.1936V35.2678C15.6122 34.2252 15.2574 33.2136 14.6061 32.3993L12.7315 30.0563C12.8127 29.8491 12.8571 29.6234 12.8571 29.3874C12.8571 28.3731 12.0348 27.5507 11.0204 27.5507C10.006 27.5507 9.18367 28.3731 9.18367 29.3874C9.18367 30.4018 10.006 31.2242 11.0204 31.2242C11.1145 31.2242 11.2069 31.2171 11.2971 31.2035L13.1718 33.5468C13.5626 34.0352 13.7755 34.6422 13.7755 35.2678V37.1936C13.7755 38.6866 13.4532 39.7327 12.9775 40.3814C12.5286 40.9935 11.8921 41.3262 11.0204 41.3262C9.35818 41.3262 7.95158 40.2215 7.49934 38.7041L7.33756 38.1613L6.77987 38.0622C5.2752 37.7949 4.13265 36.4788 4.13265 34.8977C4.13265 34.0992 4.19455 33.8072 4.41664 33.5374C4.71999 33.1688 5.12903 33.0307 5.57291 33.0781C6.03811 33.1278 6.52226 33.3854 6.85239 33.7981L7.93171 35.1472Z" fill="#090A0E"></path> <path d="M295.874 41.4465C295.048 41.4465 294.249 41.7326 293.684 42.2204V41.6231H292.084V51.2804H293.684V48.1679C294.223 48.6726 295.057 48.9922 295.874 48.9922C297.953 48.9922 299.645 47.3014 299.645 45.2236C299.645 43.1373 297.953 41.4465 295.874 41.4465ZM295.822 47.3519C294.568 47.3519 293.658 46.4518 293.658 45.2151C293.658 43.9785 294.568 43.0869 295.822 43.0869C297.034 43.0869 297.953 44.0038 297.953 45.2151C297.953 46.435 297.034 47.3519 295.822 47.3519Z" fill="#333333"></path> <path d="M288.885 45.5594C288.885 46.7119 287.958 47.4016 287.058 47.4016C286.107 47.4016 285.433 46.7119 285.433 45.7276V41.6309H283.824V45.8454C283.824 47.8391 284.969 48.9916 286.957 48.9916C287.605 48.9916 288.371 48.6635 288.876 48.1672C288.876 48.2933 288.876 48.4195 288.876 48.5457V48.8149H290.476V41.6309H288.868L288.885 45.5594Z" fill="#333333"></path> <path d="M278.849 41.4465C276.769 41.4465 275.076 43.1373 275.076 45.2151C275.076 47.293 276.769 48.9839 278.849 48.9839C280.928 48.9839 282.62 47.293 282.62 45.2151C282.62 43.1373 280.937 41.4465 278.849 41.4465ZM278.849 47.3855C277.653 47.3855 276.677 46.4098 276.677 45.2151C276.677 44.0207 277.653 43.0449 278.849 43.0449C280.044 43.0449 281.021 44.0207 281.021 45.2151C281.021 46.4098 280.053 47.3855 278.849 47.3855Z" fill="#333333"></path> <path d="M271.684 42.5561L271.668 42.5729V41.6223H270.936H270.193H270.067V48.8064H270.193H271.668C271.668 48.798 271.668 45.9295 271.668 45.4415C271.668 44.2301 272.391 43.1954 273.797 43.1954H274.681V41.6223H273.797C272.702 41.6223 272.198 41.9757 271.684 42.5561Z" fill="#333333"></path> <path d="M266.876 42.2204C266.313 41.7326 265.513 41.4465 264.688 41.4465C262.608 41.4465 260.915 43.1373 260.915 45.2151C260.915 47.293 262.608 48.9839 264.688 48.9839C265.505 48.9839 266.337 48.6642 266.876 48.1594V48.3024C266.852 49.7745 266.135 50.5233 264.738 50.5233H264.721C263.93 50.5233 263.231 50.2205 262.583 49.5895L262.524 49.5306L261.362 50.6411L261.413 50.6999C262.01 51.3981 263.222 52.1973 264.679 52.1973C264.705 52.1973 264.73 52.1973 264.755 52.1973C266.119 52.1721 268.409 51.6421 268.477 48.3613V41.6148H266.876V42.2204ZM264.738 47.3519C263.526 47.3519 262.608 46.435 262.608 45.2151C262.608 44.0038 263.526 43.0869 264.738 43.0869C265.993 43.0869 266.902 43.9785 266.902 45.2151C266.893 46.4518 265.993 47.3519 264.738 47.3519Z" fill="#333333"></path> <path d="M292.69 37.215C293.828 37.215 295.275 36.6009 296.185 35.5578C296.193 36.0204 296.185 36.441 296.185 36.8953H298.685V31.5536V24.6555H296.176V31.3769C296.176 33.1182 294.846 34.7418 292.85 34.7418C291.108 34.7418 289.87 33.4799 289.87 31.6714V24.664H287.361V31.8816C287.37 35.1119 289.112 37.215 292.69 37.215Z" fill="#333333"></path> <path d="M280.5 30.889C280.5 28.828 281.737 27.0614 284.136 27.0614H285.651V24.6555H284.136C282.259 24.6555 281.4 25.2528 280.524 26.2454L280.507 26.2707V24.6555H277.991V36.8953H280.5C280.5 36.8868 280.5 31.7218 280.5 30.889Z" fill="#333333"></path> <path d="M273.814 33.7812C272.863 33.7812 272.097 34.5468 272.097 35.4974C272.097 36.4479 272.863 37.2135 273.814 37.2135C274.766 37.2135 275.532 36.4479 275.532 35.4974C275.532 34.5468 274.766 33.7812 273.814 33.7812Z" fill="#333333"></path> <path d="M269.512 19.6257H266.969V36.9044H269.512V19.6257Z" fill="#333333"></path> <path d="M264.208 24.6555H261.665V36.8953H264.208V24.6555Z" fill="#333333"></path> <path d="M262.936 22.6276C263.887 22.6276 264.654 21.862 264.654 20.9114C264.654 19.9609 263.88 19.1953 262.936 19.1953C261.984 19.1953 261.219 19.9609 261.219 20.9114C261.219 21.862 261.993 22.6276 262.936 22.6276Z" fill="#333333"></path> <path d="M256.412 25.8924C255.436 24.8997 253.937 24.3445 252.447 24.3445C248.894 24.3445 246.006 27.2299 246.006 30.7798C246.006 34.3298 248.894 37.2152 252.447 37.2152C253.937 37.2152 255.511 36.5758 256.412 35.5663V36.9039H258.912V24.6557H256.412V25.8924ZM252.53 34.6579C250.342 34.6579 248.674 32.9754 248.674 30.7798C248.674 28.5843 250.342 26.9186 252.53 26.9186C254.72 26.9186 256.446 28.4833 256.446 30.7798C256.446 33.0763 254.72 34.6579 252.53 34.6579Z" fill="#333333"></path> <path d="M238.664 24.3445C236.996 24.3445 235.364 25.1016 234.37 26.2961C233.461 25.0931 232.139 24.3445 230.362 24.3445C228.914 24.3445 227.879 24.9922 227.323 25.5137V24.6557H224.822V36.8955H227.323V29.7368C227.323 28.1384 228.628 26.8429 230.219 26.8429C231.81 26.8429 233.116 28.1468 233.116 29.7368V36.8955H235.616V29.7368C235.616 28.1384 236.921 26.8429 238.512 26.8429C240.104 26.8429 241.408 28.1468 241.408 29.7368V36.8955H243.908V29.7368C243.925 26.456 241.796 24.3445 238.664 24.3445Z" fill="#333333"></path> <path d="M207.984 30.5603C207.984 32.7895 206.175 34.5982 203.944 34.5982C201.713 34.5982 199.902 32.7895 199.902 30.5603C199.902 28.3311 201.713 26.5224 203.944 26.5224C206.175 26.5224 207.984 28.3394 207.984 30.5603ZM203.944 17.1428C196.534 17.1428 190.506 23.166 190.506 30.5687C190.506 37.9714 196.534 43.9862 203.944 43.9862C206.655 43.9862 209.273 43.1785 211.512 41.6475L211.554 41.6223L209.744 39.5193L209.711 39.536C207.984 40.6381 205.997 41.2269 203.944 41.2269C198.059 41.2269 193.267 36.4404 193.267 30.5603C193.267 24.6802 198.059 19.8936 203.944 19.8936C209.828 19.8936 214.619 24.6802 214.619 30.5603C214.619 31.3258 214.534 32.0913 214.366 32.8568C214.03 34.2448 213.061 34.6654 212.329 34.6065C211.597 34.5477 210.737 34.0261 210.728 32.7475V30.5603C210.728 26.8169 207.681 23.7716 203.935 23.7716C200.188 23.7716 197.14 26.8169 197.14 30.5603C197.14 34.3037 200.188 37.349 203.935 37.349C205.753 37.349 207.463 36.6339 208.751 35.3468C209.5 36.5077 210.721 37.2395 212.11 37.349C212.227 37.3573 212.353 37.3657 212.472 37.3657C213.448 37.3657 214.417 37.0377 215.199 36.4489C216.008 35.8348 216.606 34.9514 216.934 33.8915C216.984 33.7233 217.086 33.3279 217.086 33.3279V33.3111C217.279 32.4614 217.371 31.6118 217.371 30.5603C217.38 23.166 211.352 17.1428 203.944 17.1428Z" fill="#FC2C38"></path> </svg> 