<?xml version="1.0" encoding="UTF-8"?> <svg xmlns="http://www.w3.org/2000/svg" width="36" height="36" viewBox="0 0 36 36" fill="none"> <path d="M14.7003 18.0001C14.7003 16.1773 16.1775 14.6993 18.0002 14.6993C19.823 14.6993 21.301 16.1773 21.301 18.0001C21.301 19.8228 19.823 21.3008 18.0002 21.3008C16.1775 21.3008 14.7003 19.8228 14.7003 18.0001Z" fill="black"></path> <path fill-rule="evenodd" clip-rule="evenodd" d="M13.9181 8.15847C12.864 8.20648 12.1437 8.37361 11.5147 8.61838C10.8633 8.87115 10.3118 9.21025 9.76071 9.76046C9.20963 10.3107 8.87139 10.863 8.61862 11.5145C8.37386 12.1439 8.20672 12.8638 8.15872 13.9178C8.10992 14.9736 8.09875 15.3111 8.09875 18C8.09875 20.689 8.10992 21.0265 8.15872 22.0822C8.20672 23.1364 8.37386 23.8562 8.61862 24.4856C8.87139 25.1367 9.20971 25.6896 9.76071 26.2396C10.3117 26.7896 10.8633 27.1282 11.5147 27.3817C12.1449 27.6265 12.864 27.7936 13.9181 27.8416C14.9744 27.8896 15.3113 27.9016 18.0003 27.9016C20.6892 27.9016 21.0267 27.8904 22.0825 27.8416C23.1366 27.7936 23.8564 27.6265 24.4859 27.3817C25.1369 27.1282 25.6888 26.7898 26.2399 26.2396C26.7909 25.6894 27.1285 25.1367 27.3819 24.4856C27.6267 23.8562 27.7946 23.1363 27.8418 22.0822C27.8898 21.0257 27.901 20.689 27.901 18C27.901 15.3111 27.8898 14.9736 27.8418 13.9178C27.7938 12.8637 27.6267 12.1435 27.3819 11.5145C27.1285 10.8634 26.7901 10.3115 26.2399 9.76046C25.6897 9.20938 25.1369 8.87115 24.4867 8.61838C23.8564 8.37361 23.1366 8.20568 22.0833 8.15847C21.0275 8.11047 20.69 8.09851 18.0011 8.09851C15.3121 8.09851 14.9744 8.10968 13.9181 8.15847ZM12.9159 18.0001C12.9159 20.8081 15.1922 23.0844 18.0002 23.0844C20.8083 23.0844 23.0846 20.8081 23.0846 18.0001C23.0846 15.192 20.8083 12.9158 18.0002 12.9158C15.1922 12.9158 12.9159 15.192 12.9159 18.0001ZM22.8429 12.7922C22.6979 12.575 22.6206 12.3197 22.6207 12.0586C22.621 11.7086 22.7602 11.373 23.0077 11.1256C23.2553 10.8782 23.5914 10.7391 23.9414 10.7389C24.2025 10.739 24.4577 10.8166 24.6748 10.9617C24.8918 11.1069 25.061 11.3131 25.1608 11.5544C25.2606 11.7957 25.2867 12.0611 25.2356 12.3172C25.1846 12.5733 25.0587 12.8085 24.874 12.993C24.6893 13.1776 24.454 13.3032 24.1979 13.3541C23.9418 13.4049 23.6764 13.3786 23.4352 13.2786C23.194 13.1786 22.9879 13.0093 22.8429 12.7922Z" fill="black"></path> </svg> 