<?xml version="1.0" encoding="UTF-8"?> <svg xmlns="http://www.w3.org/2000/svg" width="36" height="36" viewBox="0 0 36 36" fill="none"> <path fill-rule="evenodd" clip-rule="evenodd" d="M22.0015 26.9132C23.2596 27.4636 23.7314 26.3103 23.7314 26.3103L27.0602 9.58764C27.034 8.46056 25.5138 9.14205 25.5138 9.14205L6.8777 16.4549C6.8777 16.4549 5.98652 16.7695 6.06516 17.3199C6.14379 17.8703 6.85149 18.1325 6.85149 18.1325L11.5433 19.7051C11.5433 19.7051 12.9587 24.3445 13.247 25.2357C13.5091 26.1006 13.745 26.1268 13.745 26.1268C14.0071 26.2317 14.243 26.0482 14.243 26.0482L17.2835 23.296L22.0015 26.9132ZM22.8141 12.5495C22.8141 12.5495 23.4693 12.1563 23.4431 12.5495C23.4431 12.5495 23.548 12.6019 23.2072 12.9688C22.8927 13.2834 15.4749 19.941 14.4789 20.8322C14.4003 20.8846 14.3479 20.9632 14.3479 21.0681L14.0595 23.5319C14.0071 23.794 13.6664 23.8202 13.5877 23.5843L12.3558 19.5478C12.3034 19.3906 12.3558 19.2071 12.5131 19.1022L22.8141 12.5495Z" fill="black"></path> </svg> 